# xmcd
#
# Track frame offsets:
#	150
#	13930
#	33683
#	47201
#	64990
#	84508
#	100207
#	114608
#	129706
#	144295
#	162383
#	177516
#	193063
#	207433
#	218370
#	230569
#	245834
#	260846
#
# Disc length: 3696 seconds
#
# Revision: 2
# Processed by: cddbd v1.5.2PL0 Copyright (c) Steve Scherf et al.
# Submitted via: dBpowerAMP V4.0
#
DISCID=180e6e12
DTITLE=Country Dance Kings - The Very Best of Country Line Dancin
DYEAR=1998
DGENRE=Country
TTITLE0=When love starts talkin
TTITLE1=Dance the night away
TTITLE2=Round about way
TTITLE3=Dream walkin
TTITLE4=To have you back again
TTITLE5=L'd rather ride around with you
TTITLE6=Sad lookin 'moon
TTITLE7=You and only you
TTITLE8=How a cowgirl says goodbye
TTITLE9=You better think twice
TTITLE10=Too good to be true
TTITLE11=Takin the country back
TTITLE12=L've loved enough to know
TTITLE13=Cowboy Cadillac
TTITLE14=Xxx's and ooo's
TTITLE15=My Maria
TTITLE16=Happy girl
TTITLE17=Whatever you do  don't 
EXTD=
EXTT0=
EXTT1=
EXTT2=
EXTT3=
EXTT4=
EXTT5=
EXTT6=
EXTT7=
EXTT8=
EXTT9=
EXTT10=
EXTT11=
EXTT12=
EXTT13=
EXTT14=
EXTT15=
EXTT16=
EXTT17=
PLAYORDER=
